<mxfile host="Electron" modified="2023-11-24T16:29:44.269Z" agent="Mozilla/5.0 (Windows NT 10.0; Win64; x64) AppleWebKit/537.36 (KHTML, like Gecko) draw.io/22.0.3 Chrome/114.0.5735.289 Electron/25.8.4 Safari/537.36" etag="VTbFNoa0o4fa5YqJOoE8" version="22.0.3" type="device">
  <diagram name="Page-1" id="LRylOcGWHgRrwWCnJz1Z">
    <mxGraphModel dx="1727" dy="2123" grid="1" gridSize="10" guides="1" tooltips="1" connect="1" arrows="1" fold="1" page="1" pageScale="1" pageWidth="850" pageHeight="1100" math="0" shadow="0">
      <root>
        <mxCell id="0" />
        <mxCell id="1" parent="0" />
        <mxCell id="Wrr1uKJiQuh0ioYI9KPZ-1" value="" style="rounded=1;whiteSpace=wrap;html=1;" parent="1" vertex="1">
          <mxGeometry x="140" y="260" width="60" height="120" as="geometry" />
        </mxCell>
        <mxCell id="Wrr1uKJiQuh0ioYI9KPZ-2" value="" style="endArrow=none;html=1;rounded=0;exitX=0;exitY=0.75;exitDx=0;exitDy=0;entryX=1;entryY=0.75;entryDx=0;entryDy=0;" parent="1" edge="1">
          <mxGeometry width="50" height="50" relative="1" as="geometry">
            <mxPoint x="140" y="370" as="sourcePoint" />
            <mxPoint x="200" y="370" as="targetPoint" />
          </mxGeometry>
        </mxCell>
        <mxCell id="Wrr1uKJiQuh0ioYI9KPZ-3" value="" style="endArrow=none;html=1;rounded=0;exitX=0;exitY=0.25;exitDx=0;exitDy=0;entryX=1;entryY=0.25;entryDx=0;entryDy=0;" parent="1" edge="1">
          <mxGeometry width="50" height="50" relative="1" as="geometry">
            <mxPoint x="140" y="270" as="sourcePoint" />
            <mxPoint x="200" y="270" as="targetPoint" />
          </mxGeometry>
        </mxCell>
        <mxCell id="Wrr1uKJiQuh0ioYI9KPZ-4" style="edgeStyle=orthogonalEdgeStyle;rounded=0;orthogonalLoop=1;jettySize=auto;html=1;entryX=1;entryY=0.5;entryDx=0;entryDy=0;" parent="1" source="Wrr1uKJiQuh0ioYI9KPZ-5" target="Wrr1uKJiQuh0ioYI9KPZ-29" edge="1">
          <mxGeometry relative="1" as="geometry" />
        </mxCell>
        <mxCell id="Wrr1uKJiQuh0ioYI9KPZ-5" value="" style="rounded=1;whiteSpace=wrap;html=1;" parent="1" vertex="1">
          <mxGeometry x="145" y="350" width="20" height="10" as="geometry" />
        </mxCell>
        <mxCell id="Wrr1uKJiQuh0ioYI9KPZ-6" style="edgeStyle=orthogonalEdgeStyle;rounded=0;orthogonalLoop=1;jettySize=auto;html=1;entryX=0;entryY=0.75;entryDx=0;entryDy=0;" parent="1" source="Wrr1uKJiQuh0ioYI9KPZ-7" target="Wrr1uKJiQuh0ioYI9KPZ-35" edge="1">
          <mxGeometry relative="1" as="geometry" />
        </mxCell>
        <mxCell id="Wrr1uKJiQuh0ioYI9KPZ-7" value="" style="rounded=1;whiteSpace=wrap;html=1;" parent="1" vertex="1">
          <mxGeometry x="175" y="350" width="20" height="10" as="geometry" />
        </mxCell>
        <mxCell id="Wrr1uKJiQuh0ioYI9KPZ-8" value="" style="rounded=1;whiteSpace=wrap;html=1;" parent="1" vertex="1">
          <mxGeometry x="145" y="300" width="50" height="10" as="geometry" />
        </mxCell>
        <mxCell id="Wrr1uKJiQuh0ioYI9KPZ-9" value="" style="rounded=1;whiteSpace=wrap;html=1;" parent="1" vertex="1">
          <mxGeometry x="145" y="320" width="50" height="10" as="geometry" />
        </mxCell>
        <mxCell id="Wrr1uKJiQuh0ioYI9KPZ-10" value="QR V-CACHING" style="text;html=1;strokeColor=none;fillColor=none;align=center;verticalAlign=middle;whiteSpace=wrap;rounded=0;fontSize=6;fontFamily=Comic Sans MS;labelBackgroundColor=none;labelBorderColor=none;" parent="1" vertex="1">
          <mxGeometry x="145" y="270" width="50" height="20" as="geometry" />
        </mxCell>
        <mxCell id="Wrr1uKJiQuh0ioYI9KPZ-11" value="Student ID" style="text;html=1;strokeColor=none;fillColor=none;align=center;verticalAlign=middle;whiteSpace=wrap;rounded=0;fontSize=5;" parent="1" vertex="1">
          <mxGeometry x="140" y="290" width="60" height="30" as="geometry" />
        </mxCell>
        <mxCell id="Wrr1uKJiQuh0ioYI9KPZ-12" value="Password" style="text;html=1;strokeColor=none;fillColor=none;align=center;verticalAlign=middle;whiteSpace=wrap;rounded=0;fontSize=5;" parent="1" vertex="1">
          <mxGeometry x="140" y="310" width="60" height="30" as="geometry" />
        </mxCell>
        <mxCell id="Wrr1uKJiQuh0ioYI9KPZ-13" value="Register" style="text;html=1;strokeColor=none;fillColor=none;align=center;verticalAlign=middle;whiteSpace=wrap;rounded=0;fontSize=4;" parent="1" vertex="1">
          <mxGeometry x="125" y="340" width="60" height="30" as="geometry" />
        </mxCell>
        <mxCell id="Wrr1uKJiQuh0ioYI9KPZ-14" value="Login" style="text;html=1;strokeColor=none;fillColor=none;align=center;verticalAlign=middle;whiteSpace=wrap;rounded=0;fontSize=4;" parent="1" vertex="1">
          <mxGeometry x="155" y="340" width="60" height="30" as="geometry" />
        </mxCell>
        <mxCell id="Wrr1uKJiQuh0ioYI9KPZ-15" value="" style="ellipse;whiteSpace=wrap;html=1;aspect=fixed;" parent="1" vertex="1">
          <mxGeometry x="165" y="370" width="10" height="10" as="geometry" />
        </mxCell>
        <mxCell id="Wrr1uKJiQuh0ioYI9KPZ-16" value="" style="rounded=1;whiteSpace=wrap;html=1;" parent="1" vertex="1">
          <mxGeometry x="45" y="260" width="60" height="120" as="geometry" />
        </mxCell>
        <mxCell id="Wrr1uKJiQuh0ioYI9KPZ-17" value="" style="endArrow=none;html=1;rounded=0;exitX=0;exitY=0.75;exitDx=0;exitDy=0;entryX=1;entryY=0.75;entryDx=0;entryDy=0;" parent="1" edge="1">
          <mxGeometry width="50" height="50" relative="1" as="geometry">
            <mxPoint x="45" y="370" as="sourcePoint" />
            <mxPoint x="105" y="370" as="targetPoint" />
          </mxGeometry>
        </mxCell>
        <mxCell id="Wrr1uKJiQuh0ioYI9KPZ-18" value="" style="endArrow=none;html=1;rounded=0;exitX=0;exitY=0.25;exitDx=0;exitDy=0;entryX=1;entryY=0.25;entryDx=0;entryDy=0;" parent="1" edge="1">
          <mxGeometry width="50" height="50" relative="1" as="geometry">
            <mxPoint x="45" y="270" as="sourcePoint" />
            <mxPoint x="105" y="270" as="targetPoint" />
          </mxGeometry>
        </mxCell>
        <mxCell id="Wrr1uKJiQuh0ioYI9KPZ-19" style="edgeStyle=orthogonalEdgeStyle;rounded=0;orthogonalLoop=1;jettySize=auto;html=1;exitX=0;exitY=0.5;exitDx=0;exitDy=0;entryX=0.58;entryY=1.022;entryDx=0;entryDy=0;entryPerimeter=0;" parent="1" edge="1">
          <mxGeometry relative="1" as="geometry">
            <mxPoint x="169.79999999999995" y="379.6400000000001" as="targetPoint" />
            <mxPoint x="50" y="352" as="sourcePoint" />
            <Array as="points">
              <mxPoint x="50" y="355" />
              <mxPoint x="30" y="355" />
              <mxPoint x="30" y="392" />
              <mxPoint x="170" y="392" />
            </Array>
          </mxGeometry>
        </mxCell>
        <mxCell id="Wrr1uKJiQuh0ioYI9KPZ-20" value="" style="rounded=1;whiteSpace=wrap;html=1;" parent="1" vertex="1">
          <mxGeometry x="50" y="350" width="20" height="10" as="geometry" />
        </mxCell>
        <mxCell id="Wrr1uKJiQuh0ioYI9KPZ-21" value="" style="rounded=1;whiteSpace=wrap;html=1;" parent="1" vertex="1">
          <mxGeometry x="80" y="350" width="20" height="10" as="geometry" />
        </mxCell>
        <mxCell id="Wrr1uKJiQuh0ioYI9KPZ-22" value="" style="rounded=1;whiteSpace=wrap;html=1;" parent="1" vertex="1">
          <mxGeometry x="50" y="315" width="50" height="10" as="geometry" />
        </mxCell>
        <mxCell id="Wrr1uKJiQuh0ioYI9KPZ-23" value="" style="rounded=1;whiteSpace=wrap;html=1;" parent="1" vertex="1">
          <mxGeometry x="50" y="330" width="50" height="10" as="geometry" />
        </mxCell>
        <mxCell id="Wrr1uKJiQuh0ioYI9KPZ-24" value="" style="ellipse;whiteSpace=wrap;html=1;aspect=fixed;" parent="1" vertex="1">
          <mxGeometry x="70" y="370" width="10" height="10" as="geometry" />
        </mxCell>
        <mxCell id="Wrr1uKJiQuh0ioYI9KPZ-25" value="" style="rounded=1;whiteSpace=wrap;html=1;" parent="1" vertex="1">
          <mxGeometry x="50" y="285" width="50" height="10" as="geometry" />
        </mxCell>
        <mxCell id="Wrr1uKJiQuh0ioYI9KPZ-26" value="" style="rounded=1;whiteSpace=wrap;html=1;" parent="1" vertex="1">
          <mxGeometry x="50" y="300" width="50" height="10" as="geometry" />
        </mxCell>
        <mxCell id="Wrr1uKJiQuh0ioYI9KPZ-27" value="Login" style="text;html=1;strokeColor=none;fillColor=none;align=center;verticalAlign=middle;whiteSpace=wrap;rounded=0;fontSize=4;" parent="1" vertex="1">
          <mxGeometry x="30" y="340" width="60" height="30" as="geometry" />
        </mxCell>
        <mxCell id="Wrr1uKJiQuh0ioYI9KPZ-28" value="Confirm" style="text;html=1;strokeColor=none;fillColor=none;align=center;verticalAlign=middle;whiteSpace=wrap;rounded=0;fontSize=4;" parent="1" vertex="1">
          <mxGeometry x="60" y="340" width="60" height="30" as="geometry" />
        </mxCell>
        <mxCell id="Wrr1uKJiQuh0ioYI9KPZ-29" value="&lt;font style=&quot;font-size: 5px;&quot;&gt;User Name&lt;/font&gt;" style="text;html=1;strokeColor=none;fillColor=none;align=center;verticalAlign=middle;whiteSpace=wrap;rounded=0;fontSize=5;" parent="1" vertex="1">
          <mxGeometry x="45" y="275" width="60" height="30" as="geometry" />
        </mxCell>
        <mxCell id="Wrr1uKJiQuh0ioYI9KPZ-30" value="Password" style="text;html=1;strokeColor=none;fillColor=none;align=center;verticalAlign=middle;whiteSpace=wrap;rounded=0;fontSize=5;" parent="1" vertex="1">
          <mxGeometry x="45" y="320" width="60" height="30" as="geometry" />
        </mxCell>
        <mxCell id="Wrr1uKJiQuh0ioYI9KPZ-31" value="Student ID" style="text;html=1;strokeColor=none;fillColor=none;align=center;verticalAlign=middle;whiteSpace=wrap;rounded=0;fontSize=5;" parent="1" vertex="1">
          <mxGeometry x="45" y="290" width="60" height="30" as="geometry" />
        </mxCell>
        <mxCell id="Wrr1uKJiQuh0ioYI9KPZ-32" value="Email" style="text;html=1;strokeColor=none;fillColor=none;align=center;verticalAlign=middle;whiteSpace=wrap;rounded=0;fontSize=5;" parent="1" vertex="1">
          <mxGeometry x="45" y="305" width="60" height="30" as="geometry" />
        </mxCell>
        <mxCell id="Wrr1uKJiQuh0ioYI9KPZ-33" value="" style="endArrow=none;html=1;rounded=0;" parent="1" edge="1">
          <mxGeometry width="50" height="50" relative="1" as="geometry">
            <mxPoint x="100" y="354" as="sourcePoint" />
            <mxPoint x="120" y="354" as="targetPoint" />
          </mxGeometry>
        </mxCell>
        <mxCell id="Wrr1uKJiQuh0ioYI9KPZ-34" value="" style="endArrow=none;html=1;rounded=0;" parent="1" edge="1">
          <mxGeometry width="50" height="50" relative="1" as="geometry">
            <mxPoint x="120" y="354" as="sourcePoint" />
            <mxPoint x="120" y="392" as="targetPoint" />
          </mxGeometry>
        </mxCell>
        <mxCell id="Wrr1uKJiQuh0ioYI9KPZ-35" value="" style="rounded=1;whiteSpace=wrap;html=1;" parent="1" vertex="1">
          <mxGeometry x="230" y="260" width="60" height="120" as="geometry" />
        </mxCell>
        <mxCell id="Wrr1uKJiQuh0ioYI9KPZ-36" value="" style="endArrow=none;html=1;rounded=0;entryX=1;entryY=0;entryDx=0;entryDy=0;" parent="1" edge="1">
          <mxGeometry width="50" height="50" relative="1" as="geometry">
            <mxPoint x="290" y="270" as="sourcePoint" />
            <mxPoint x="230" y="270" as="targetPoint" />
          </mxGeometry>
        </mxCell>
        <mxCell id="Wrr1uKJiQuh0ioYI9KPZ-37" value="" style="endArrow=none;html=1;rounded=0;entryX=1;entryY=0;entryDx=0;entryDy=0;" parent="1" edge="1">
          <mxGeometry width="50" height="50" relative="1" as="geometry">
            <mxPoint x="290" y="369.67" as="sourcePoint" />
            <mxPoint x="230" y="369.67" as="targetPoint" />
          </mxGeometry>
        </mxCell>
        <mxCell id="Wrr1uKJiQuh0ioYI9KPZ-38" value="" style="ellipse;whiteSpace=wrap;html=1;aspect=fixed;" parent="1" vertex="1">
          <mxGeometry x="255" y="370" width="10" height="10" as="geometry" />
        </mxCell>
        <mxCell id="Wrr1uKJiQuh0ioYI9KPZ-44" value="" style="rounded=1;whiteSpace=wrap;html=1;" parent="1" vertex="1">
          <mxGeometry x="331" y="-143" width="60" height="120" as="geometry" />
        </mxCell>
        <mxCell id="Wrr1uKJiQuh0ioYI9KPZ-45" value="" style="endArrow=none;html=1;rounded=0;entryX=1;entryY=0;entryDx=0;entryDy=0;" parent="1" edge="1">
          <mxGeometry width="50" height="50" relative="1" as="geometry">
            <mxPoint x="391" y="-133" as="sourcePoint" />
            <mxPoint x="331" y="-133" as="targetPoint" />
          </mxGeometry>
        </mxCell>
        <mxCell id="Wrr1uKJiQuh0ioYI9KPZ-46" value="" style="endArrow=none;html=1;rounded=0;entryX=1;entryY=0;entryDx=0;entryDy=0;" parent="1" edge="1">
          <mxGeometry width="50" height="50" relative="1" as="geometry">
            <mxPoint x="391" y="-33.329999999999984" as="sourcePoint" />
            <mxPoint x="331" y="-33.329999999999984" as="targetPoint" />
          </mxGeometry>
        </mxCell>
        <mxCell id="Wrr1uKJiQuh0ioYI9KPZ-47" value="" style="ellipse;whiteSpace=wrap;html=1;aspect=fixed;" parent="1" vertex="1">
          <mxGeometry x="356" y="-33" width="10" height="10" as="geometry" />
        </mxCell>
        <mxCell id="Wrr1uKJiQuh0ioYI9KPZ-48" value="" style="rounded=1;whiteSpace=wrap;html=1;" parent="1" vertex="1">
          <mxGeometry x="331.93" y="380" width="110" height="240" as="geometry" />
        </mxCell>
        <mxCell id="Wrr1uKJiQuh0ioYI9KPZ-49" value="" style="endArrow=none;html=1;rounded=0;entryX=0;entryY=0.25;entryDx=0;entryDy=0;exitX=1;exitY=0.25;exitDx=0;exitDy=0;" parent="1" edge="1">
          <mxGeometry width="50" height="50" relative="1" as="geometry">
            <mxPoint x="441.93" y="400" as="sourcePoint" />
            <mxPoint x="331.93" y="400" as="targetPoint" />
          </mxGeometry>
        </mxCell>
        <mxCell id="Wrr1uKJiQuh0ioYI9KPZ-50" value="" style="ellipse;whiteSpace=wrap;html=1;aspect=fixed;" parent="1" vertex="1">
          <mxGeometry x="376.93" y="599" width="20" height="20" as="geometry" />
        </mxCell>
        <mxCell id="Wrr1uKJiQuh0ioYI9KPZ-51" value="" style="rounded=1;whiteSpace=wrap;html=1;" parent="1" vertex="1">
          <mxGeometry x="850" y="265" width="60" height="120" as="geometry" />
        </mxCell>
        <mxCell id="Wrr1uKJiQuh0ioYI9KPZ-52" value="" style="endArrow=none;html=1;rounded=0;entryX=1;entryY=0;entryDx=0;entryDy=0;" parent="1" edge="1">
          <mxGeometry width="50" height="50" relative="1" as="geometry">
            <mxPoint x="910" y="275" as="sourcePoint" />
            <mxPoint x="850" y="275" as="targetPoint" />
          </mxGeometry>
        </mxCell>
        <mxCell id="Wrr1uKJiQuh0ioYI9KPZ-53" value="" style="endArrow=none;html=1;rounded=0;entryX=1;entryY=0;entryDx=0;entryDy=0;" parent="1" edge="1">
          <mxGeometry width="50" height="50" relative="1" as="geometry">
            <mxPoint x="910" y="374.6700000000001" as="sourcePoint" />
            <mxPoint x="850" y="374.6700000000001" as="targetPoint" />
          </mxGeometry>
        </mxCell>
        <mxCell id="Wrr1uKJiQuh0ioYI9KPZ-54" value="" style="ellipse;whiteSpace=wrap;html=1;aspect=fixed;" parent="1" vertex="1">
          <mxGeometry x="875" y="375" width="10" height="10" as="geometry" />
        </mxCell>
        <mxCell id="Wrr1uKJiQuh0ioYI9KPZ-55" value="" style="endArrow=none;html=1;rounded=0;exitX=0;exitY=0.75;exitDx=0;exitDy=0;entryX=1;entryY=0.75;entryDx=0;entryDy=0;" parent="1" edge="1">
          <mxGeometry width="50" height="50" relative="1" as="geometry">
            <mxPoint x="331.93" y="598" as="sourcePoint" />
            <mxPoint x="441.93" y="598" as="targetPoint" />
          </mxGeometry>
        </mxCell>
        <mxCell id="Wrr1uKJiQuh0ioYI9KPZ-76" value="" style="rounded=1;whiteSpace=wrap;html=1;" parent="1" vertex="1">
          <mxGeometry x="504.43" y="381" width="110" height="240" as="geometry" />
        </mxCell>
        <mxCell id="Wrr1uKJiQuh0ioYI9KPZ-77" value="" style="endArrow=none;html=1;rounded=0;entryX=0;entryY=0.25;entryDx=0;entryDy=0;exitX=1;exitY=0.25;exitDx=0;exitDy=0;" parent="1" edge="1">
          <mxGeometry width="50" height="50" relative="1" as="geometry">
            <mxPoint x="614.43" y="401" as="sourcePoint" />
            <mxPoint x="504.43" y="401" as="targetPoint" />
          </mxGeometry>
        </mxCell>
        <mxCell id="Wrr1uKJiQuh0ioYI9KPZ-78" value="" style="ellipse;whiteSpace=wrap;html=1;aspect=fixed;" parent="1" vertex="1">
          <mxGeometry x="549.43" y="600" width="20" height="20" as="geometry" />
        </mxCell>
        <mxCell id="Wrr1uKJiQuh0ioYI9KPZ-79" value="" style="endArrow=none;html=1;rounded=0;exitX=0;exitY=0.75;exitDx=0;exitDy=0;entryX=1;entryY=0.75;entryDx=0;entryDy=0;" parent="1" edge="1">
          <mxGeometry width="50" height="50" relative="1" as="geometry">
            <mxPoint x="504.43" y="599" as="sourcePoint" />
            <mxPoint x="614.43" y="599" as="targetPoint" />
          </mxGeometry>
        </mxCell>
        <mxCell id="Wrr1uKJiQuh0ioYI9KPZ-80" value="" style="rounded=1;whiteSpace=wrap;html=1;" parent="1" vertex="1">
          <mxGeometry x="514.43" y="581" width="30" height="9" as="geometry" />
        </mxCell>
        <mxCell id="Wrr1uKJiQuh0ioYI9KPZ-81" value="Back" style="text;html=1;strokeColor=none;fillColor=none;align=center;verticalAlign=middle;whiteSpace=wrap;rounded=0;fontSize=7;" parent="1" vertex="1">
          <mxGeometry x="517.43" y="577.5" width="25" height="16" as="geometry" />
        </mxCell>
        <mxCell id="Wrr1uKJiQuh0ioYI9KPZ-82" value="" style="shape=process;whiteSpace=wrap;html=1;backgroundOutline=1;" parent="1" vertex="1">
          <mxGeometry x="514.43" y="411" width="90" height="19" as="geometry" />
        </mxCell>
        <mxCell id="Wrr1uKJiQuh0ioYI9KPZ-84" value="" style="sketch=0;outlineConnect=0;fillColor=#d0cee2;strokeColor=#56517e;dashed=0;verticalLabelPosition=bottom;verticalAlign=top;align=center;html=1;fontSize=12;fontStyle=0;aspect=fixed;pointerEvents=1;shape=mxgraph.aws4.camera2;" parent="1" vertex="1">
          <mxGeometry x="250" y="350" width="20" height="15.9" as="geometry" />
        </mxCell>
        <mxCell id="Wrr1uKJiQuh0ioYI9KPZ-88" value="" style="sketch=0;outlineConnect=0;fillColor=#d0cee2;strokeColor=#56517e;dashed=0;verticalLabelPosition=bottom;verticalAlign=top;align=center;html=1;fontSize=12;fontStyle=0;aspect=fixed;pointerEvents=1;shape=mxgraph.aws4.camera2;" parent="1" vertex="1">
          <mxGeometry x="584.43" y="575.1" width="20" height="15.9" as="geometry" />
        </mxCell>
        <mxCell id="Wrr1uKJiQuh0ioYI9KPZ-95" value="" style="ellipse;whiteSpace=wrap;html=1;aspect=fixed;" parent="1" vertex="1">
          <mxGeometry x="376" y="-131" width="10" height="10" as="geometry" />
        </mxCell>
        <mxCell id="Wrr1uKJiQuh0ioYI9KPZ-96" style="edgeStyle=orthogonalEdgeStyle;rounded=0;orthogonalLoop=1;jettySize=auto;html=1;entryX=0;entryY=0.5;entryDx=0;entryDy=0;" parent="1" source="Wrr1uKJiQuh0ioYI9KPZ-97" target="Wrr1uKJiQuh0ioYI9KPZ-107" edge="1">
          <mxGeometry relative="1" as="geometry" />
        </mxCell>
        <mxCell id="Wrr1uKJiQuh0ioYI9KPZ-97" value="" style="image;aspect=fixed;html=1;points=[];align=center;fontSize=12;image=img/lib/azure2/identity/Azure_AD_Privilege_Identity_Management.svg;" parent="1" vertex="1">
          <mxGeometry x="376" y="-131" width="10" height="10" as="geometry" />
        </mxCell>
        <mxCell id="Wrr1uKJiQuh0ioYI9KPZ-103" value="" style="rounded=1;whiteSpace=wrap;html=1;" parent="1" vertex="1">
          <mxGeometry x="334" y="-131" width="40" height="10" as="geometry" />
        </mxCell>
        <mxCell id="Wrr1uKJiQuh0ioYI9KPZ-104" value="&lt;font style=&quot;font-size: 10px;&quot;&gt;User&lt;/font&gt;" style="text;html=1;strokeColor=none;fillColor=none;align=center;verticalAlign=middle;whiteSpace=wrap;rounded=0;" parent="1" vertex="1">
          <mxGeometry x="342" y="-130" width="25" height="6" as="geometry" />
        </mxCell>
        <mxCell id="Wrr1uKJiQuh0ioYI9KPZ-105" value="" style="rounded=1;whiteSpace=wrap;html=1;" parent="1" vertex="1">
          <mxGeometry x="351" y="-42.50999999999999" width="20" height="5" as="geometry" />
        </mxCell>
        <mxCell id="Wrr1uKJiQuh0ioYI9KPZ-106" value="&lt;font style=&quot;font-size: 4px;&quot;&gt;Back&lt;/font&gt;" style="text;html=1;strokeColor=none;fillColor=none;align=center;verticalAlign=middle;whiteSpace=wrap;rounded=0;" parent="1" vertex="1">
          <mxGeometry x="353.5" y="-47.50999999999999" width="15" height="10" as="geometry" />
        </mxCell>
        <mxCell id="Wrr1uKJiQuh0ioYI9KPZ-107" value="" style="rounded=1;whiteSpace=wrap;html=1;" parent="1" vertex="1">
          <mxGeometry x="435.29" y="-270" width="60" height="120" as="geometry" />
        </mxCell>
        <mxCell id="Wrr1uKJiQuh0ioYI9KPZ-108" value="" style="endArrow=none;html=1;rounded=0;entryX=1;entryY=0;entryDx=0;entryDy=0;" parent="1" edge="1">
          <mxGeometry width="50" height="50" relative="1" as="geometry">
            <mxPoint x="495.29" y="-260" as="sourcePoint" />
            <mxPoint x="435.29" y="-260" as="targetPoint" />
          </mxGeometry>
        </mxCell>
        <mxCell id="Wrr1uKJiQuh0ioYI9KPZ-109" value="" style="endArrow=none;html=1;rounded=0;entryX=1;entryY=0;entryDx=0;entryDy=0;" parent="1" edge="1">
          <mxGeometry width="50" height="50" relative="1" as="geometry">
            <mxPoint x="495.29" y="-160.32999999999998" as="sourcePoint" />
            <mxPoint x="435.29" y="-160.32999999999998" as="targetPoint" />
          </mxGeometry>
        </mxCell>
        <mxCell id="Wrr1uKJiQuh0ioYI9KPZ-110" value="" style="ellipse;whiteSpace=wrap;html=1;aspect=fixed;" parent="1" vertex="1">
          <mxGeometry x="460.29" y="-160" width="10" height="10" as="geometry" />
        </mxCell>
        <mxCell id="Wrr1uKJiQuh0ioYI9KPZ-112" value="" style="rounded=1;whiteSpace=wrap;html=1;" parent="1" vertex="1">
          <mxGeometry x="455.29" y="-169.51" width="20" height="5" as="geometry" />
        </mxCell>
        <mxCell id="Wrr1uKJiQuh0ioYI9KPZ-113" value="&lt;font style=&quot;font-size: 4px;&quot;&gt;Back&lt;/font&gt;" style="text;html=1;strokeColor=none;fillColor=none;align=center;verticalAlign=middle;whiteSpace=wrap;rounded=0;" parent="1" vertex="1">
          <mxGeometry x="457.79" y="-174.51" width="15" height="10" as="geometry" />
        </mxCell>
        <mxCell id="Wrr1uKJiQuh0ioYI9KPZ-129" value="" style="shape=image;verticalLabelPosition=bottom;labelBackgroundColor=default;verticalAlign=top;aspect=fixed;imageAspect=0;image=https://cdn.discordapp.com/attachments/419557019343912960/1156252973815566366/frame_1.png;" parent="1" vertex="1">
          <mxGeometry x="855" y="285" width="50" height="50" as="geometry" />
        </mxCell>
        <mxCell id="Wrr1uKJiQuh0ioYI9KPZ-130" value="" style="shape=partialRectangle;whiteSpace=wrap;html=1;bottom=0;right=0;fillColor=none;" parent="1" vertex="1">
          <mxGeometry x="855" y="285" width="20" height="20" as="geometry" />
        </mxCell>
        <mxCell id="Wrr1uKJiQuh0ioYI9KPZ-131" value="" style="shape=partialRectangle;whiteSpace=wrap;html=1;bottom=0;right=0;fillColor=none;flipV=1;" parent="1" vertex="1">
          <mxGeometry x="855" y="315" width="20" height="20" as="geometry" />
        </mxCell>
        <mxCell id="Wrr1uKJiQuh0ioYI9KPZ-132" value="" style="shape=partialRectangle;whiteSpace=wrap;html=1;bottom=0;right=0;fillColor=none;flipH=1;" parent="1" vertex="1">
          <mxGeometry x="885" y="285" width="20" height="20" as="geometry" />
        </mxCell>
        <mxCell id="Wrr1uKJiQuh0ioYI9KPZ-133" value="" style="shape=partialRectangle;whiteSpace=wrap;html=1;bottom=0;right=0;fillColor=none;flipV=1;flipH=1;" parent="1" vertex="1">
          <mxGeometry x="885" y="315" width="20" height="20" as="geometry" />
        </mxCell>
        <mxCell id="Wrr1uKJiQuh0ioYI9KPZ-136" value="" style="rounded=1;whiteSpace=wrap;html=1;" parent="1" vertex="1">
          <mxGeometry x="865" y="355" width="30" height="15" as="geometry" />
        </mxCell>
        <mxCell id="Wrr1uKJiQuh0ioYI9KPZ-137" value="&lt;font style=&quot;font-size: 10px;&quot;&gt;Back&lt;/font&gt;" style="text;html=1;strokeColor=none;fillColor=none;align=center;verticalAlign=middle;whiteSpace=wrap;rounded=0;" parent="1" vertex="1">
          <mxGeometry x="850" y="345" width="60" height="30" as="geometry" />
        </mxCell>
        <mxCell id="Wrr1uKJiQuh0ioYI9KPZ-138" value="" style="rounded=1;whiteSpace=wrap;html=1;" parent="1" vertex="1">
          <mxGeometry x="940" y="265" width="60" height="120" as="geometry" />
        </mxCell>
        <mxCell id="Wrr1uKJiQuh0ioYI9KPZ-139" value="" style="endArrow=none;html=1;rounded=0;entryX=1;entryY=0;entryDx=0;entryDy=0;" parent="1" edge="1">
          <mxGeometry width="50" height="50" relative="1" as="geometry">
            <mxPoint x="1000" y="275" as="sourcePoint" />
            <mxPoint x="940" y="275" as="targetPoint" />
          </mxGeometry>
        </mxCell>
        <mxCell id="Wrr1uKJiQuh0ioYI9KPZ-140" value="" style="endArrow=none;html=1;rounded=0;entryX=1;entryY=0;entryDx=0;entryDy=0;" parent="1" edge="1">
          <mxGeometry width="50" height="50" relative="1" as="geometry">
            <mxPoint x="1000" y="374.6700000000001" as="sourcePoint" />
            <mxPoint x="940" y="374.6700000000001" as="targetPoint" />
          </mxGeometry>
        </mxCell>
        <mxCell id="Wrr1uKJiQuh0ioYI9KPZ-141" value="" style="ellipse;whiteSpace=wrap;html=1;aspect=fixed;" parent="1" vertex="1">
          <mxGeometry x="965" y="375" width="10" height="10" as="geometry" />
        </mxCell>
        <mxCell id="ZvIdO_FVmQ0zWU2Lpnzt-164" style="edgeStyle=orthogonalEdgeStyle;rounded=0;orthogonalLoop=1;jettySize=auto;html=1;entryX=0.25;entryY=1;entryDx=0;entryDy=0;" parent="1" source="Wrr1uKJiQuh0ioYI9KPZ-142" target="Wrr1uKJiQuh0ioYI9KPZ-35" edge="1">
          <mxGeometry relative="1" as="geometry">
            <mxPoint x="780" y="620" as="targetPoint" />
            <Array as="points">
              <mxPoint x="1080" y="368" />
              <mxPoint x="1080" y="660" />
              <mxPoint x="245" y="660" />
            </Array>
          </mxGeometry>
        </mxCell>
        <mxCell id="Wrr1uKJiQuh0ioYI9KPZ-142" value="" style="rounded=1;whiteSpace=wrap;html=1;" parent="1" vertex="1">
          <mxGeometry x="975" y="365.49" width="20" height="5" as="geometry" />
        </mxCell>
        <mxCell id="Wrr1uKJiQuh0ioYI9KPZ-143" value="&lt;font style=&quot;font-size: 6px;&quot;&gt;Take a Foto&lt;/font&gt;" style="rounded=1;whiteSpace=wrap;html=1;" parent="1" vertex="1">
          <mxGeometry x="950" y="295" width="40" height="20" as="geometry" />
        </mxCell>
        <mxCell id="Wrr1uKJiQuh0ioYI9KPZ-144" value="&lt;font style=&quot;font-size: 5px;&quot;&gt;write something&lt;/font&gt;" style="rounded=1;whiteSpace=wrap;html=1;" parent="1" vertex="1">
          <mxGeometry x="950" y="325" width="40" height="20" as="geometry" />
        </mxCell>
        <mxCell id="Wrr1uKJiQuh0ioYI9KPZ-145" value="" style="rounded=1;whiteSpace=wrap;html=1;" parent="1" vertex="1">
          <mxGeometry x="945" y="365.49" width="20" height="5" as="geometry" />
        </mxCell>
        <mxCell id="Wrr1uKJiQuh0ioYI9KPZ-146" value="&lt;font style=&quot;font-size: 4px;&quot;&gt;Back&lt;/font&gt;" style="text;html=1;strokeColor=none;fillColor=none;align=center;verticalAlign=middle;whiteSpace=wrap;rounded=0;" parent="1" vertex="1">
          <mxGeometry x="947.5" y="360.49" width="15" height="10" as="geometry" />
        </mxCell>
        <mxCell id="Wrr1uKJiQuh0ioYI9KPZ-147" value="&lt;font style=&quot;font-size: 4px;&quot;&gt;Confirm&lt;/font&gt;" style="text;html=1;strokeColor=none;fillColor=none;align=center;verticalAlign=middle;whiteSpace=wrap;rounded=0;" parent="1" vertex="1">
          <mxGeometry x="962.5" y="363.87" width="45" height="3.24" as="geometry" />
        </mxCell>
        <mxCell id="OXNjrM-huSevpUhUrN5x-1" value="" style="rounded=0;whiteSpace=wrap;html=1;" parent="1" vertex="1">
          <mxGeometry x="230" y="270" width="60" height="20" as="geometry" />
        </mxCell>
        <mxCell id="Wrr1uKJiQuh0ioYI9KPZ-42" value="" style="ellipse;whiteSpace=wrap;html=1;aspect=fixed;rotation=-180;" parent="1" vertex="1">
          <mxGeometry x="230" y="272" width="15" height="15" as="geometry" />
        </mxCell>
        <mxCell id="ZvIdO_FVmQ0zWU2Lpnzt-126" style="edgeStyle=orthogonalEdgeStyle;rounded=0;orthogonalLoop=1;jettySize=auto;html=1;entryX=0;entryY=0.5;entryDx=0;entryDy=0;" parent="1" source="Wrr1uKJiQuh0ioYI9KPZ-99" target="OXNjrM-huSevpUhUrN5x-45" edge="1">
          <mxGeometry relative="1" as="geometry">
            <Array as="points">
              <mxPoint x="220" y="280" />
              <mxPoint x="220" y="-108" />
            </Array>
          </mxGeometry>
        </mxCell>
        <mxCell id="Wrr1uKJiQuh0ioYI9KPZ-99" value="" style="image;aspect=fixed;html=1;points=[];align=center;fontSize=12;image=img/lib/azure2/identity/Azure_AD_Privilege_Identity_Management.svg;" parent="1" vertex="1">
          <mxGeometry x="230" y="272.25" width="14.5" height="14.5" as="geometry" />
        </mxCell>
        <mxCell id="OXNjrM-huSevpUhUrN5x-4" value="" style="rounded=1;whiteSpace=wrap;html=1;" parent="1" vertex="1">
          <mxGeometry x="250" y="274.25" width="20" height="7" as="geometry" />
        </mxCell>
        <mxCell id="OXNjrM-huSevpUhUrN5x-5" value="100" style="text;html=1;strokeColor=none;fillColor=none;align=center;verticalAlign=middle;whiteSpace=wrap;rounded=0;fontSize=5;" parent="1" vertex="1">
          <mxGeometry x="250" y="280" width="10" height="10" as="geometry" />
        </mxCell>
        <mxCell id="ZvIdO_FVmQ0zWU2Lpnzt-128" style="edgeStyle=orthogonalEdgeStyle;rounded=0;orthogonalLoop=1;jettySize=auto;html=1;exitX=1;exitY=0.5;exitDx=0;exitDy=0;entryX=0;entryY=0.5;entryDx=0;entryDy=0;" parent="1" source="OXNjrM-huSevpUhUrN5x-11" target="ZvIdO_FVmQ0zWU2Lpnzt-66" edge="1">
          <mxGeometry relative="1" as="geometry" />
        </mxCell>
        <mxCell id="OXNjrM-huSevpUhUrN5x-11" value="" style="rounded=1;whiteSpace=wrap;html=1;" parent="1" vertex="1">
          <mxGeometry x="242.5" y="310" width="35" height="10" as="geometry" />
        </mxCell>
        <mxCell id="ZvIdO_FVmQ0zWU2Lpnzt-130" style="edgeStyle=orthogonalEdgeStyle;rounded=0;orthogonalLoop=1;jettySize=auto;html=1;exitX=1;exitY=0.5;exitDx=0;exitDy=0;entryX=0;entryY=0.5;entryDx=0;entryDy=0;" parent="1" source="OXNjrM-huSevpUhUrN5x-12" target="Wrr1uKJiQuh0ioYI9KPZ-48" edge="1">
          <mxGeometry relative="1" as="geometry" />
        </mxCell>
        <mxCell id="OXNjrM-huSevpUhUrN5x-12" value="" style="rounded=1;whiteSpace=wrap;html=1;" parent="1" vertex="1">
          <mxGeometry x="242.5" y="330" width="35" height="10" as="geometry" />
        </mxCell>
        <mxCell id="OXNjrM-huSevpUhUrN5x-15" value="&lt;font style=&quot;font-size: 7px;&quot;&gt;Events&lt;/font&gt;" style="text;html=1;strokeColor=none;fillColor=none;align=center;verticalAlign=middle;whiteSpace=wrap;rounded=0;" parent="1" vertex="1">
          <mxGeometry x="248" y="308" width="25" height="10" as="geometry" />
        </mxCell>
        <mxCell id="OXNjrM-huSevpUhUrN5x-16" value="Map" style="text;html=1;strokeColor=none;fillColor=none;align=center;verticalAlign=middle;whiteSpace=wrap;rounded=0;fontSize=7;" parent="1" vertex="1">
          <mxGeometry x="244.5" y="330" width="30" height="10" as="geometry" />
        </mxCell>
        <mxCell id="OXNjrM-huSevpUhUrN5x-30" value="" style="rounded=1;whiteSpace=wrap;html=1;fillColor=#00FF00;" parent="1" vertex="1">
          <mxGeometry x="250" y="275" width="10" height="6.25" as="geometry" />
        </mxCell>
        <mxCell id="OXNjrM-huSevpUhUrN5x-37" value="Take a pohoto" style="text;html=1;strokeColor=none;fillColor=none;align=center;verticalAlign=middle;whiteSpace=wrap;rounded=0;" parent="1" vertex="1">
          <mxGeometry x="435.29" y="-225" width="60" height="30" as="geometry" />
        </mxCell>
        <mxCell id="ZvIdO_FVmQ0zWU2Lpnzt-137" style="edgeStyle=orthogonalEdgeStyle;rounded=0;orthogonalLoop=1;jettySize=auto;html=1;exitX=0;exitY=1;exitDx=0;exitDy=0;entryX=0.5;entryY=0;entryDx=0;entryDy=0;" parent="1" source="OXNjrM-huSevpUhUrN5x-38" target="Wrr1uKJiQuh0ioYI9KPZ-44" edge="1">
          <mxGeometry relative="1" as="geometry" />
        </mxCell>
        <mxCell id="OXNjrM-huSevpUhUrN5x-38" value="Camera" style="text;html=1;strokeColor=none;fillColor=none;align=center;verticalAlign=middle;whiteSpace=wrap;rounded=0;" parent="1" vertex="1">
          <mxGeometry x="435.29" y="-268" width="60" height="30" as="geometry" />
        </mxCell>
        <mxCell id="OXNjrM-huSevpUhUrN5x-39" value="" style="rounded=1;whiteSpace=wrap;html=1;" parent="1" vertex="1">
          <mxGeometry x="331" y="-113" width="60" height="13" as="geometry" />
        </mxCell>
        <mxCell id="OXNjrM-huSevpUhUrN5x-40" value="" style="rounded=1;whiteSpace=wrap;html=1;" parent="1" vertex="1">
          <mxGeometry x="341" y="-100" width="50" height="10" as="geometry" />
        </mxCell>
        <mxCell id="OXNjrM-huSevpUhUrN5x-41" value="" style="rounded=1;whiteSpace=wrap;html=1;" parent="1" vertex="1">
          <mxGeometry x="341" y="-90" width="50" height="10" as="geometry" />
        </mxCell>
        <mxCell id="ZvIdO_FVmQ0zWU2Lpnzt-139" style="edgeStyle=orthogonalEdgeStyle;rounded=0;orthogonalLoop=1;jettySize=auto;html=1;" parent="1" source="OXNjrM-huSevpUhUrN5x-42" edge="1">
          <mxGeometry relative="1" as="geometry">
            <mxPoint x="440" y="-75" as="targetPoint" />
          </mxGeometry>
        </mxCell>
        <mxCell id="OXNjrM-huSevpUhUrN5x-42" value="" style="rounded=1;whiteSpace=wrap;html=1;" parent="1" vertex="1">
          <mxGeometry x="341" y="-80" width="50" height="10" as="geometry" />
        </mxCell>
        <mxCell id="OXNjrM-huSevpUhUrN5x-43" value="" style="rounded=1;whiteSpace=wrap;html=1;" parent="1" vertex="1">
          <mxGeometry x="331" y="-70" width="60" height="13" as="geometry" />
        </mxCell>
        <mxCell id="OXNjrM-huSevpUhUrN5x-44" value="" style="rounded=1;whiteSpace=wrap;html=1;" parent="1" vertex="1">
          <mxGeometry x="341" y="-57.50999999999999" width="50" height="10" as="geometry" />
        </mxCell>
        <mxCell id="OXNjrM-huSevpUhUrN5x-45" value="Events" style="text;html=1;strokeColor=none;fillColor=none;align=center;verticalAlign=middle;whiteSpace=wrap;rounded=0;" parent="1" vertex="1">
          <mxGeometry x="331" y="-123" width="60" height="30" as="geometry" />
        </mxCell>
        <mxCell id="OXNjrM-huSevpUhUrN5x-46" value="Map" style="text;html=1;strokeColor=none;fillColor=none;align=center;verticalAlign=middle;whiteSpace=wrap;rounded=0;" parent="1" vertex="1">
          <mxGeometry x="343.5" y="-72.00999999999999" width="35" height="14.5" as="geometry" />
        </mxCell>
        <mxCell id="OXNjrM-huSevpUhUrN5x-47" value="Iade" style="text;html=1;strokeColor=none;fillColor=none;align=center;verticalAlign=middle;whiteSpace=wrap;rounded=0;fontSize=8;" parent="1" vertex="1">
          <mxGeometry x="356" y="-101.5" width="20" height="13" as="geometry" />
        </mxCell>
        <mxCell id="OXNjrM-huSevpUhUrN5x-48" value="Iade" style="text;html=1;strokeColor=none;fillColor=none;align=center;verticalAlign=middle;whiteSpace=wrap;rounded=0;fontSize=8;" parent="1" vertex="1">
          <mxGeometry x="356" y="-91.5" width="20" height="13" as="geometry" />
        </mxCell>
        <mxCell id="OXNjrM-huSevpUhUrN5x-49" value="Iade" style="text;html=1;strokeColor=none;fillColor=none;align=center;verticalAlign=middle;whiteSpace=wrap;rounded=0;fontSize=8;" parent="1" vertex="1">
          <mxGeometry x="356" y="-81.5" width="20" height="13" as="geometry" />
        </mxCell>
        <mxCell id="OXNjrM-huSevpUhUrN5x-50" value="Rua ......." style="text;html=1;strokeColor=none;fillColor=none;align=center;verticalAlign=middle;whiteSpace=wrap;rounded=0;fontSize=6;" parent="1" vertex="1">
          <mxGeometry x="343.5" y="-59.00999999999999" width="50" height="13" as="geometry" />
        </mxCell>
        <mxCell id="OXNjrM-huSevpUhUrN5x-52" value="" style="outlineConnect=0;dashed=0;verticalLabelPosition=bottom;verticalAlign=top;align=center;html=1;shape=mxgraph.aws3.codepipeline;fillColor=#759C3E;gradientColor=none;" parent="1" vertex="1">
          <mxGeometry x="343.5" y="-97.75" width="10" height="5.5" as="geometry" />
        </mxCell>
        <mxCell id="OXNjrM-huSevpUhUrN5x-54" value="" style="outlineConnect=0;dashed=0;verticalLabelPosition=bottom;verticalAlign=top;align=center;html=1;shape=mxgraph.aws3.codepipeline;fillColor=#759C3E;gradientColor=none;" parent="1" vertex="1">
          <mxGeometry x="343.5" y="-87.75" width="10" height="5.5" as="geometry" />
        </mxCell>
        <mxCell id="OXNjrM-huSevpUhUrN5x-55" value="" style="outlineConnect=0;dashed=0;verticalLabelPosition=bottom;verticalAlign=top;align=center;html=1;shape=mxgraph.aws3.codepipeline;fillColor=#759C3E;gradientColor=none;" parent="1" vertex="1">
          <mxGeometry x="343.5" y="-77.50999999999999" width="10" height="5.5" as="geometry" />
        </mxCell>
        <mxCell id="OXNjrM-huSevpUhUrN5x-56" value="" style="outlineConnect=0;dashed=0;verticalLabelPosition=bottom;verticalAlign=top;align=center;html=1;shape=mxgraph.aws3.codepipeline;fillColor=#759C3E;gradientColor=none;" parent="1" vertex="1">
          <mxGeometry x="343.5" y="-55.25999999999999" width="10" height="5.5" as="geometry" />
        </mxCell>
        <mxCell id="OXNjrM-huSevpUhUrN5x-58" value="" style="verticalLabelPosition=bottom;shadow=0;dashed=0;align=center;html=1;verticalAlign=top;strokeWidth=1;shape=mxgraph.mockup.misc.map;" parent="1" vertex="1">
          <mxGeometry x="331.93" y="400" width="110" height="200" as="geometry" />
        </mxCell>
        <mxCell id="Wrr1uKJiQuh0ioYI9KPZ-74" value="" style="rounded=1;whiteSpace=wrap;html=1;" parent="1" vertex="1">
          <mxGeometry x="371.93" y="581" width="30" height="9" as="geometry" />
        </mxCell>
        <mxCell id="Wrr1uKJiQuh0ioYI9KPZ-75" value="Back" style="text;html=1;strokeColor=none;fillColor=none;align=center;verticalAlign=middle;whiteSpace=wrap;rounded=0;fontSize=7;" parent="1" vertex="1">
          <mxGeometry x="356.93" y="570.5" width="60" height="30" as="geometry" />
        </mxCell>
        <mxCell id="OXNjrM-huSevpUhUrN5x-59" value="" style="sketch=0;html=1;aspect=fixed;strokeColor=none;shadow=0;fillColor=#3B8DF1;verticalAlign=top;labelPosition=center;verticalLabelPosition=bottom;shape=mxgraph.gcp2.maps_api" parent="1" vertex="1">
          <mxGeometry x="350.07" y="452" width="6.86" height="11.25" as="geometry" />
        </mxCell>
        <mxCell id="OXNjrM-huSevpUhUrN5x-60" value="" style="sketch=0;html=1;aspect=fixed;strokeColor=none;shadow=0;fillColor=#3B8DF1;verticalAlign=top;labelPosition=center;verticalLabelPosition=bottom;shape=mxgraph.gcp2.maps_api" parent="1" vertex="1">
          <mxGeometry x="393.49999999999994" y="490" width="6.86" height="11.25" as="geometry" />
        </mxCell>
        <mxCell id="OXNjrM-huSevpUhUrN5x-61" value="" style="sketch=0;html=1;aspect=fixed;strokeColor=none;shadow=0;fillColor=#3B8DF1;verticalAlign=top;labelPosition=center;verticalLabelPosition=bottom;shape=mxgraph.gcp2.maps_api" parent="1" vertex="1">
          <mxGeometry x="400.35999999999996" y="559.25" width="6.86" height="11.25" as="geometry" />
        </mxCell>
        <mxCell id="OXNjrM-huSevpUhUrN5x-63" value="Rua .... .... ...." style="text;html=1;strokeColor=none;fillColor=none;align=center;verticalAlign=middle;whiteSpace=wrap;rounded=0;fontSize=8;" parent="1" vertex="1">
          <mxGeometry x="509.43" y="405.5" width="85" height="30" as="geometry" />
        </mxCell>
        <mxCell id="OXNjrM-huSevpUhUrN5x-66" value="" style="rounded=1;whiteSpace=wrap;html=1;absoluteArcSize=1;arcSize=14;strokeWidth=2;" parent="1" vertex="1">
          <mxGeometry x="509.43" y="446.9" width="100" height="100" as="geometry" />
        </mxCell>
        <mxCell id="OXNjrM-huSevpUhUrN5x-64" value="Foto do local" style="text;html=1;strokeColor=none;fillColor=none;align=center;verticalAlign=middle;whiteSpace=wrap;rounded=0;" parent="1" vertex="1">
          <mxGeometry x="529.43" y="481" width="60" height="30" as="geometry" />
        </mxCell>
        <mxCell id="ZvIdO_FVmQ0zWU2Lpnzt-41" value="" style="rounded=1;whiteSpace=wrap;html=1;" parent="1" vertex="1">
          <mxGeometry x="331.93" y="13" width="110" height="244.5" as="geometry" />
        </mxCell>
        <mxCell id="ZvIdO_FVmQ0zWU2Lpnzt-42" value="" style="endArrow=none;html=1;rounded=0;exitX=0;exitY=0.75;exitDx=0;exitDy=0;entryX=1;entryY=0.75;entryDx=0;entryDy=0;" parent="1" edge="1">
          <mxGeometry width="50" height="50" relative="1" as="geometry">
            <mxPoint x="331.93" y="237" as="sourcePoint" />
            <mxPoint x="441.93" y="237" as="targetPoint" />
          </mxGeometry>
        </mxCell>
        <mxCell id="ZvIdO_FVmQ0zWU2Lpnzt-43" value="" style="ellipse;whiteSpace=wrap;html=1;aspect=fixed;" parent="1" vertex="1">
          <mxGeometry x="378.93" y="237.5" width="20" height="20" as="geometry" />
        </mxCell>
        <mxCell id="ZvIdO_FVmQ0zWU2Lpnzt-44" value="" style="endArrow=none;html=1;rounded=0;exitX=0;exitY=0.75;exitDx=0;exitDy=0;entryX=1;entryY=0.75;entryDx=0;entryDy=0;" parent="1" edge="1">
          <mxGeometry width="50" height="50" relative="1" as="geometry">
            <mxPoint x="331.93" y="33" as="sourcePoint" />
            <mxPoint x="441.93" y="33" as="targetPoint" />
          </mxGeometry>
        </mxCell>
        <mxCell id="ZvIdO_FVmQ0zWU2Lpnzt-45" value="" style="rounded=1;whiteSpace=wrap;html=1;" parent="1" vertex="1">
          <mxGeometry x="331.93" y="33" width="110" height="19" as="geometry" />
        </mxCell>
        <mxCell id="ZvIdO_FVmQ0zWU2Lpnzt-46" value="Nome do evento" style="text;html=1;strokeColor=none;fillColor=none;align=center;verticalAlign=middle;whiteSpace=wrap;rounded=0;" parent="1" vertex="1">
          <mxGeometry x="332.29" y="29.75" width="103" height="25.5" as="geometry" />
        </mxCell>
        <mxCell id="ZvIdO_FVmQ0zWU2Lpnzt-57" value="" style="rounded=1;whiteSpace=wrap;html=1;" parent="1" vertex="1">
          <mxGeometry x="331.93" y="127.25" width="110" height="19" as="geometry" />
        </mxCell>
        <mxCell id="ZvIdO_FVmQ0zWU2Lpnzt-59" value="" style="rounded=1;whiteSpace=wrap;html=1;" parent="1" vertex="1">
          <mxGeometry x="331.93" y="146.25" width="110" height="19" as="geometry" />
        </mxCell>
        <mxCell id="ZvIdO_FVmQ0zWU2Lpnzt-60" value="" style="rounded=1;whiteSpace=wrap;html=1;" parent="1" vertex="1">
          <mxGeometry x="331.93" y="165.25" width="110" height="19" as="geometry" />
        </mxCell>
        <mxCell id="ZvIdO_FVmQ0zWU2Lpnzt-62" value="" style="rounded=1;whiteSpace=wrap;html=1;" parent="1" vertex="1">
          <mxGeometry x="331.93" y="184.25" width="110" height="19" as="geometry" />
        </mxCell>
        <mxCell id="ZvIdO_FVmQ0zWU2Lpnzt-63" value="Nome do evento" style="text;html=1;strokeColor=none;fillColor=none;align=center;verticalAlign=middle;whiteSpace=wrap;rounded=0;" parent="1" vertex="1">
          <mxGeometry x="331.93000000000006" y="179" width="103" height="25.5" as="geometry" />
        </mxCell>
        <mxCell id="ZvIdO_FVmQ0zWU2Lpnzt-64" value="Nome do evento" style="text;html=1;strokeColor=none;fillColor=none;align=center;verticalAlign=middle;whiteSpace=wrap;rounded=0;" parent="1" vertex="1">
          <mxGeometry x="331.93" y="160" width="103" height="25.5" as="geometry" />
        </mxCell>
        <mxCell id="ZvIdO_FVmQ0zWU2Lpnzt-65" value="Nome do evento" style="text;html=1;strokeColor=none;fillColor=none;align=center;verticalAlign=middle;whiteSpace=wrap;rounded=0;" parent="1" vertex="1">
          <mxGeometry x="331.93" y="141" width="103" height="25.5" as="geometry" />
        </mxCell>
        <mxCell id="ZvIdO_FVmQ0zWU2Lpnzt-66" value="Nome do evento" style="text;html=1;strokeColor=none;fillColor=none;align=center;verticalAlign=middle;whiteSpace=wrap;rounded=0;" parent="1" vertex="1">
          <mxGeometry x="331.93" y="124.25" width="103" height="25.5" as="geometry" />
        </mxCell>
        <mxCell id="ZvIdO_FVmQ0zWU2Lpnzt-170" style="edgeStyle=orthogonalEdgeStyle;rounded=0;orthogonalLoop=1;jettySize=auto;html=1;" parent="1" source="ZvIdO_FVmQ0zWU2Lpnzt-69" target="ZvIdO_FVmQ0zWU2Lpnzt-85" edge="1">
          <mxGeometry relative="1" as="geometry" />
        </mxCell>
        <mxCell id="ZvIdO_FVmQ0zWU2Lpnzt-69" value="" style="rounded=1;whiteSpace=wrap;html=1;" parent="1" vertex="1">
          <mxGeometry x="331.93" y="52" width="110" height="19" as="geometry" />
        </mxCell>
        <mxCell id="ZvIdO_FVmQ0zWU2Lpnzt-70" value="" style="rounded=1;whiteSpace=wrap;html=1;" parent="1" vertex="1">
          <mxGeometry x="331.93" y="71" width="110" height="19" as="geometry" />
        </mxCell>
        <mxCell id="ZvIdO_FVmQ0zWU2Lpnzt-71" value="" style="rounded=1;whiteSpace=wrap;html=1;" parent="1" vertex="1">
          <mxGeometry x="331.93" y="90.25" width="110" height="19" as="geometry" />
        </mxCell>
        <mxCell id="ZvIdO_FVmQ0zWU2Lpnzt-72" value="" style="rounded=1;whiteSpace=wrap;html=1;" parent="1" vertex="1">
          <mxGeometry x="331.93" y="109.25" width="110" height="19" as="geometry" />
        </mxCell>
        <mxCell id="ZvIdO_FVmQ0zWU2Lpnzt-58" value="Nome do evento" style="text;html=1;strokeColor=none;fillColor=none;align=center;verticalAlign=middle;whiteSpace=wrap;rounded=0;" parent="1" vertex="1">
          <mxGeometry x="331.93" y="106" width="103" height="25.5" as="geometry" />
        </mxCell>
        <mxCell id="ZvIdO_FVmQ0zWU2Lpnzt-74" value="Nome do evento" style="text;html=1;strokeColor=none;fillColor=none;align=center;verticalAlign=middle;whiteSpace=wrap;rounded=0;" parent="1" vertex="1">
          <mxGeometry x="331.93" y="86.5" width="103" height="25.5" as="geometry" />
        </mxCell>
        <mxCell id="ZvIdO_FVmQ0zWU2Lpnzt-76" value="Nome do evento" style="text;html=1;strokeColor=none;fillColor=none;align=center;verticalAlign=middle;whiteSpace=wrap;rounded=0;" parent="1" vertex="1">
          <mxGeometry x="331.93" y="68.5" width="103" height="25.5" as="geometry" />
        </mxCell>
        <mxCell id="ZvIdO_FVmQ0zWU2Lpnzt-78" value="Nome do evento" style="text;html=1;strokeColor=none;fillColor=none;align=center;verticalAlign=middle;whiteSpace=wrap;rounded=0;" parent="1" vertex="1">
          <mxGeometry x="332.28999999999996" y="48.75" width="103" height="25.5" as="geometry" />
        </mxCell>
        <mxCell id="ZvIdO_FVmQ0zWU2Lpnzt-85" value="" style="rounded=1;whiteSpace=wrap;html=1;" parent="1" vertex="1">
          <mxGeometry x="504.42999999999995" y="13" width="110" height="244.5" as="geometry" />
        </mxCell>
        <mxCell id="ZvIdO_FVmQ0zWU2Lpnzt-86" value="" style="endArrow=none;html=1;rounded=0;exitX=0;exitY=0.75;exitDx=0;exitDy=0;entryX=1;entryY=0.75;entryDx=0;entryDy=0;" parent="1" edge="1">
          <mxGeometry width="50" height="50" relative="1" as="geometry">
            <mxPoint x="504.42999999999995" y="237" as="sourcePoint" />
            <mxPoint x="614.43" y="237" as="targetPoint" />
          </mxGeometry>
        </mxCell>
        <mxCell id="ZvIdO_FVmQ0zWU2Lpnzt-87" value="" style="ellipse;whiteSpace=wrap;html=1;aspect=fixed;" parent="1" vertex="1">
          <mxGeometry x="551.43" y="237.5" width="20" height="20" as="geometry" />
        </mxCell>
        <mxCell id="ZvIdO_FVmQ0zWU2Lpnzt-88" value="" style="endArrow=none;html=1;rounded=0;exitX=0;exitY=0.75;exitDx=0;exitDy=0;entryX=1;entryY=0.75;entryDx=0;entryDy=0;" parent="1" edge="1">
          <mxGeometry width="50" height="50" relative="1" as="geometry">
            <mxPoint x="504.42999999999995" y="33" as="sourcePoint" />
            <mxPoint x="614.43" y="33" as="targetPoint" />
          </mxGeometry>
        </mxCell>
        <mxCell id="ZvIdO_FVmQ0zWU2Lpnzt-111" value="" style="image;points=[];aspect=fixed;html=1;align=center;shadow=0;dashed=0;image=img/lib/allied_telesis/buildings/Building_Cluster.svg;" parent="1" vertex="1">
          <mxGeometry x="522.6699999999998" y="45" width="77.52" height="71" as="geometry" />
        </mxCell>
        <mxCell id="ZvIdO_FVmQ0zWU2Lpnzt-113" value="Modelo 3D do espaço do evento" style="text;html=1;strokeColor=none;fillColor=none;align=center;verticalAlign=middle;whiteSpace=wrap;rounded=0;" parent="1" vertex="1">
          <mxGeometry x="521.43" y="74.25" width="80" height="30" as="geometry" />
        </mxCell>
        <mxCell id="ZvIdO_FVmQ0zWU2Lpnzt-118" value="" style="rounded=1;whiteSpace=wrap;html=1;" parent="1" vertex="1">
          <mxGeometry x="548.43" y="227.25" width="26" height="7" as="geometry" />
        </mxCell>
        <mxCell id="ZvIdO_FVmQ0zWU2Lpnzt-117" value="&lt;font style=&quot;font-size: 6px;&quot;&gt;back&lt;/font&gt;" style="text;html=1;strokeColor=none;fillColor=none;align=center;verticalAlign=middle;whiteSpace=wrap;rounded=0;" parent="1" vertex="1">
          <mxGeometry x="545.18" y="221.5" width="32.5" height="16" as="geometry" />
        </mxCell>
        <mxCell id="ZvIdO_FVmQ0zWU2Lpnzt-121" style="edgeStyle=orthogonalEdgeStyle;rounded=0;orthogonalLoop=1;jettySize=auto;html=1;entryX=0.988;entryY=0.838;entryDx=0;entryDy=0;entryPerimeter=0;" parent="1" source="ZvIdO_FVmQ0zWU2Lpnzt-118" target="ZvIdO_FVmQ0zWU2Lpnzt-41" edge="1">
          <mxGeometry relative="1" as="geometry" />
        </mxCell>
        <mxCell id="ZvIdO_FVmQ0zWU2Lpnzt-13" value="" style="rounded=1;whiteSpace=wrap;html=1;" parent="1" vertex="1">
          <mxGeometry x="504.92999999999995" y="128.25" width="110" height="19" as="geometry" />
        </mxCell>
        <mxCell id="ZvIdO_FVmQ0zWU2Lpnzt-16" value="Nome do evento" style="text;html=1;strokeColor=none;fillColor=none;align=center;verticalAlign=middle;whiteSpace=wrap;rounded=0;" parent="1" vertex="1">
          <mxGeometry x="506.92999999999995" y="125" width="103" height="25.5" as="geometry" />
        </mxCell>
        <mxCell id="ZvIdO_FVmQ0zWU2Lpnzt-17" value="" style="rounded=1;whiteSpace=wrap;html=1;" parent="1" vertex="1">
          <mxGeometry x="531.43" y="147.75" width="83" height="18" as="geometry" />
        </mxCell>
        <mxCell id="ZvIdO_FVmQ0zWU2Lpnzt-18" value="Local onde se encontra o qr code" style="text;html=1;strokeColor=none;fillColor=none;align=center;verticalAlign=middle;whiteSpace=wrap;rounded=0;fontSize=6;" parent="1" vertex="1">
          <mxGeometry x="542.93" y="141.75" width="60" height="30" as="geometry" />
        </mxCell>
        <mxCell id="ZvIdO_FVmQ0zWU2Lpnzt-23" value="" style="rounded=1;whiteSpace=wrap;html=1;" parent="1" vertex="1">
          <mxGeometry x="531.43" y="165.75" width="83" height="18" as="geometry" />
        </mxCell>
        <mxCell id="ZvIdO_FVmQ0zWU2Lpnzt-24" value="" style="rounded=1;whiteSpace=wrap;html=1;" parent="1" vertex="1">
          <mxGeometry x="531.43" y="183.75" width="83" height="18" as="geometry" />
        </mxCell>
        <mxCell id="ZvIdO_FVmQ0zWU2Lpnzt-19" value="Local onde se encontra o qr code" style="text;html=1;strokeColor=none;fillColor=none;align=center;verticalAlign=middle;whiteSpace=wrap;rounded=0;fontSize=6;" parent="1" vertex="1">
          <mxGeometry x="542.93" y="159.75" width="60" height="30" as="geometry" />
        </mxCell>
        <mxCell id="ZvIdO_FVmQ0zWU2Lpnzt-20" value="Local onde se encontra o qr code" style="text;html=1;strokeColor=none;fillColor=none;align=center;verticalAlign=middle;whiteSpace=wrap;rounded=0;fontSize=6;" parent="1" vertex="1">
          <mxGeometry x="542.9999999999999" y="177.75" width="60" height="30" as="geometry" />
        </mxCell>
        <mxCell id="ZvIdO_FVmQ0zWU2Lpnzt-131" style="edgeStyle=orthogonalEdgeStyle;rounded=0;orthogonalLoop=1;jettySize=auto;html=1;entryX=0.001;entryY=0.438;entryDx=0;entryDy=0;entryPerimeter=0;" parent="1" source="OXNjrM-huSevpUhUrN5x-58" target="Wrr1uKJiQuh0ioYI9KPZ-76" edge="1">
          <mxGeometry relative="1" as="geometry" />
        </mxCell>
        <mxCell id="ZvIdO_FVmQ0zWU2Lpnzt-140" value="" style="rounded=1;whiteSpace=wrap;html=1;" parent="1" vertex="1">
          <mxGeometry x="435.29" y="-143" width="60" height="120" as="geometry" />
        </mxCell>
        <mxCell id="ZvIdO_FVmQ0zWU2Lpnzt-141" value="" style="endArrow=none;html=1;rounded=0;entryX=1;entryY=0;entryDx=0;entryDy=0;" parent="1" edge="1">
          <mxGeometry width="50" height="50" relative="1" as="geometry">
            <mxPoint x="495.29" y="-133" as="sourcePoint" />
            <mxPoint x="435.29" y="-133" as="targetPoint" />
          </mxGeometry>
        </mxCell>
        <mxCell id="ZvIdO_FVmQ0zWU2Lpnzt-142" value="" style="endArrow=none;html=1;rounded=0;entryX=1;entryY=0;entryDx=0;entryDy=0;" parent="1" edge="1">
          <mxGeometry width="50" height="50" relative="1" as="geometry">
            <mxPoint x="495.29" y="-33.329999999999984" as="sourcePoint" />
            <mxPoint x="435.29" y="-33.329999999999984" as="targetPoint" />
          </mxGeometry>
        </mxCell>
        <mxCell id="ZvIdO_FVmQ0zWU2Lpnzt-143" value="" style="ellipse;whiteSpace=wrap;html=1;aspect=fixed;" parent="1" vertex="1">
          <mxGeometry x="460.29" y="-33" width="10" height="10" as="geometry" />
        </mxCell>
        <mxCell id="ZvIdO_FVmQ0zWU2Lpnzt-144" value="" style="rounded=1;whiteSpace=wrap;html=1;" parent="1" vertex="1">
          <mxGeometry x="455.29" y="-42.50999999999999" width="20" height="5" as="geometry" />
        </mxCell>
        <mxCell id="ZvIdO_FVmQ0zWU2Lpnzt-145" value="&lt;font style=&quot;font-size: 4px;&quot;&gt;Back&lt;/font&gt;" style="text;html=1;strokeColor=none;fillColor=none;align=center;verticalAlign=middle;whiteSpace=wrap;rounded=0;" parent="1" vertex="1">
          <mxGeometry x="457.79" y="-47.50999999999999" width="15" height="10" as="geometry" />
        </mxCell>
        <mxCell id="ZvIdO_FVmQ0zWU2Lpnzt-149" style="edgeStyle=orthogonalEdgeStyle;rounded=0;orthogonalLoop=1;jettySize=auto;html=1;entryX=0.977;entryY=0.862;entryDx=0;entryDy=0;entryPerimeter=0;" parent="1" source="ZvIdO_FVmQ0zWU2Lpnzt-144" target="Wrr1uKJiQuh0ioYI9KPZ-44" edge="1">
          <mxGeometry relative="1" as="geometry" />
        </mxCell>
        <mxCell id="ZvIdO_FVmQ0zWU2Lpnzt-150" value="" style="whiteSpace=wrap;html=1;aspect=fixed;" parent="1" vertex="1">
          <mxGeometry x="440.29" y="-113" width="50" height="50" as="geometry" />
        </mxCell>
        <mxCell id="ZvIdO_FVmQ0zWU2Lpnzt-151" value="mostra a foto" style="text;html=1;strokeColor=none;fillColor=none;align=center;verticalAlign=middle;whiteSpace=wrap;rounded=0;" parent="1" vertex="1">
          <mxGeometry x="434.93" y="-110" width="60" height="30" as="geometry" />
        </mxCell>
        <mxCell id="ZvIdO_FVmQ0zWU2Lpnzt-153" value="" style="rounded=1;whiteSpace=wrap;html=1;" parent="1" vertex="1">
          <mxGeometry x="445" y="-127" width="40" height="10" as="geometry" />
        </mxCell>
        <mxCell id="ZvIdO_FVmQ0zWU2Lpnzt-152" value="&lt;font style=&quot;font-size: 6px;&quot;&gt;Rua ... ... ...&lt;/font&gt;" style="text;html=1;strokeColor=none;fillColor=none;align=center;verticalAlign=middle;whiteSpace=wrap;rounded=0;" parent="1" vertex="1">
          <mxGeometry x="447.15" y="-130" width="35.57" height="10" as="geometry" />
        </mxCell>
        <mxCell id="ZvIdO_FVmQ0zWU2Lpnzt-154" value="Text" style="text;html=1;strokeColor=none;fillColor=none;align=center;verticalAlign=middle;whiteSpace=wrap;rounded=0;" parent="1" vertex="1">
          <mxGeometry x="445.29" y="-59.01" width="40" height="10" as="geometry" />
        </mxCell>
        <mxCell id="ZvIdO_FVmQ0zWU2Lpnzt-156" style="edgeStyle=orthogonalEdgeStyle;rounded=0;orthogonalLoop=1;jettySize=auto;html=1;entryX=-0.01;entryY=0.696;entryDx=0;entryDy=0;entryPerimeter=0;" parent="1" source="Wrr1uKJiQuh0ioYI9KPZ-88" target="Wrr1uKJiQuh0ioYI9KPZ-51" edge="1">
          <mxGeometry relative="1" as="geometry">
            <Array as="points">
              <mxPoint x="650" y="583" />
              <mxPoint x="650" y="348" />
            </Array>
          </mxGeometry>
        </mxCell>
        <mxCell id="ZvIdO_FVmQ0zWU2Lpnzt-158" style="edgeStyle=orthogonalEdgeStyle;rounded=0;orthogonalLoop=1;jettySize=auto;html=1;entryX=-0.022;entryY=0.385;entryDx=0;entryDy=0;entryPerimeter=0;" parent="1" source="Wrr1uKJiQuh0ioYI9KPZ-84" target="Wrr1uKJiQuh0ioYI9KPZ-51" edge="1">
          <mxGeometry relative="1" as="geometry" />
        </mxCell>
        <mxCell id="ZvIdO_FVmQ0zWU2Lpnzt-159" style="edgeStyle=orthogonalEdgeStyle;rounded=0;orthogonalLoop=1;jettySize=auto;html=1;entryX=0.014;entryY=0.795;entryDx=0;entryDy=0;entryPerimeter=0;" parent="1" source="Wrr1uKJiQuh0ioYI9KPZ-137" target="Wrr1uKJiQuh0ioYI9KPZ-138" edge="1">
          <mxGeometry relative="1" as="geometry" />
        </mxCell>
      </root>
    </mxGraphModel>
  </diagram>
</mxfile>
